<svg width="105" height="105" viewBox="0 0 105 105" fill="none" xmlns="http://www.w3.org/2000/svg">
<path fill-rule="evenodd" clip-rule="evenodd" d="M0.411743 52.3469C0.411743 72.8959 12.349 90.6142 29.6921 99.0214C24.3715 87.5617 18.8633 75.7268 18.6586 75.3175C18.3346 74.5842 17.8742 73.3052 18.2494 71.8557C18.5563 70.7643 19.8012 68.8884 20.688 67.7459C22.4103 65.5631 22.8878 64.4205 23.1436 62.8346L41.9703 103.216C45.3298 103.899 48.7746 104.257 52.3387 104.257L52.765 104.223C52.2364 103.097 51.6907 101.972 51.1791 100.812C51.1791 100.812 45.2787 88.1244 39.7023 76.1872L39.6852 76.1702C34.8421 65.7166 30.2377 55.8598 30.0843 55.4846C29.7262 54.7684 29.2657 53.4894 29.675 52.057C29.982 50.9655 31.2439 49.0726 32.0966 47.9471C33.836 45.7473 34.3305 44.6047 34.5693 43.0188L59.6715 96.8557H59.6545L62.6047 103.234C65.7936 102.586 68.812 101.648 71.7111 100.488C68.3005 93.1722 64.7875 85.6688 62.6217 81.0132H62.6047C62.6047 81.0132 41.8851 36.5215 41.4929 35.6859C41.1688 34.9697 40.6913 33.7077 41.1347 32.2582C41.4076 31.1839 42.6525 29.291 43.5733 28.1484C45.2787 25.9656 45.7732 24.823 45.9949 23.2371L64.9921 63.9601L80.033 96.2247C82.7615 94.5023 85.2854 92.5412 87.6217 90.3754C83.1197 80.6722 77.0487 67.6777 74.0815 61.2316L74.0303 61.2486C74.0303 61.2486 53.3448 16.7398 52.9526 15.9213C52.5945 15.2221 52.1511 13.926 52.5433 12.4936C52.8503 11.4022 54.0781 9.50927 54.9649 8.3667C56.7043 6.1839 57.1818 5.04133 57.4205 3.45539L76.6735 44.7752L94.3918 82.7186C100.531 74.1579 104.266 63.7043 104.266 52.3469C104.266 23.6634 80.988 0.419922 52.3387 0.419922C23.6552 0.419922 0.411743 23.6634 0.411743 52.3469Z" fill="#DE2929"/>
</svg>
