<svg width="29" height="34" viewBox="0 0 29 34" fill="none" xmlns="http://www.w3.org/2000/svg">
<path d="M6.95041 26.0038C3.1379 25.8166 0.999168 20.1167 0.406366 17.2901C0.475659 16.7556 0.806409 15.9799 1.57506 17.1539C2.53588 18.6213 7.9182 20.7578 9.56731 21.3552C10.8866 21.8332 11.1081 23.2815 11.054 23.9459C11.2747 24.7099 10.7629 26.1911 6.95041 26.0038Z" fill="#A56D44"/>
<path d="M6.52238 18.9461C4.23179 18.2655 2.63777 16.1085 2.12708 15.1151C2.06651 14.5957 2.25704 13.5205 3.50366 13.3751C5.06192 13.1935 4.67235 13.2389 6.66561 13.4013C8.65886 13.5638 12.275 17.4857 12.1126 19.4789C11.9826 21.0735 11.3701 21.0133 11.0801 20.7839C10.5153 20.4549 8.81296 19.6267 6.52238 18.9461Z" fill="#A56D44"/>
<path d="M14.7033 17.9923C12.2254 21.1242 12.3805 26.2919 12.7677 28.4844C13.5364 29.6583 13.8671 28.8826 13.9364 28.3481C13.9841 26.4998 14.9185 22.5476 18.274 21.5245C22.4684 20.2458 24.0983 17.2917 24.7412 16.0322C25.2554 15.0245 25.0335 14.0238 24.8582 13.6493C24.6981 13.4048 23.9012 12.8922 21.995 12.7986C19.6121 12.6816 17.8006 14.0774 14.7033 17.9923Z" fill="#A56D44"/>
<path d="M15.1505 28.6014L15.0789 31.3738C15.2239 31.4885 15.6697 31.6998 16.293 31.6271C17.0722 31.5362 21.747 30.9912 25.1884 26.6413C28.6299 22.2914 27.3965 18.4866 27.2148 16.9283C27.0331 15.3701 26.2086 15.0713 26.2994 15.8505C26.3903 16.6296 23.6371 20.1095 22.5592 21.0249C21.4814 21.9403 18.5011 23.4724 17.0337 24.4332C15.8598 25.2019 15.2891 27.5323 15.1505 28.6014Z" fill="#A56D44"/>
<path d="M9.21189 12.9159C7.06193 9.76184 10.3187 4.61824 12.2158 2.44069C12.684 2.17357 13.5021 1.96961 13.0293 3.29074C12.4383 4.94215 13.9802 10.524 14.4982 12.1997C14.9126 13.5403 13.8909 14.5905 13.3283 14.948C12.852 15.5848 11.3619 16.0699 9.21189 12.9159Z" fill="#A56D44"/>
<path d="M14.5834 8.31793C13.7449 6.08034 14.5041 3.50796 14.9885 2.50146C15.3663 2.13989 16.3388 1.64343 17.2066 2.55014C18.2913 3.68354 18.0201 3.40019 19.0927 5.08812C20.1652 6.77605 19.2178 12.0258 17.5299 13.0984C16.1796 13.9564 15.8582 13.4315 15.8663 13.0619C15.7881 12.4129 15.422 10.5555 14.5834 8.31793Z" fill="#A56D44"/>
</svg>
