<svg width="67" height="71" viewBox="0 0 67 71" fill="none" xmlns="http://www.w3.org/2000/svg">
<path d="M17.1974 14.4427C17.1974 24.7676 5.87628 29.613 0.215698 30.7451C10.5406 30.7451 15.8389 41.6135 17.1974 47.0476C17.1974 36.7227 28.0658 31.8773 33.4999 30.7451C22.0882 28.5715 17.8767 18.9711 17.1974 14.4427Z" fill="#A56D44"/>
<path d="M30.284 7.64982C30.284 13.1283 24.2768 15.6994 21.2733 16.3001C26.7518 16.3001 29.5631 22.067 30.284 24.9504C30.284 19.4719 36.0508 16.9008 38.9343 16.3001C32.8791 15.1467 30.6444 10.0527 30.284 7.64982Z" fill="#A56D44"/>
<path d="M45.8378 2.2157C45.8378 5.5871 42.1411 7.16929 40.2928 7.53896C43.6642 7.53896 45.3942 11.0878 45.8378 12.8622C45.8378 9.49082 49.3867 7.90863 51.1611 7.53896C47.4348 6.82919 46.0596 3.69438 45.8378 2.2157Z" fill="#A56D44"/>
<path d="M60.7537 0.857231C60.7537 3.38578 57.9812 4.57242 56.5949 4.84968C59.1235 4.84968 60.421 7.5113 60.7537 8.84212C60.7537 6.31357 63.4153 5.12693 64.7462 4.84968C61.9514 4.31735 60.9201 1.96624 60.7537 0.857231Z" fill="#A56D44"/>
<path d="M49.8025 56.5572C49.8025 46.2323 61.1237 41.3868 66.7842 40.2547C56.4593 40.2547 51.161 29.3864 49.8025 23.9522C49.8025 34.2771 38.9342 39.1226 33.5 40.2547C44.9117 42.4284 49.1232 52.0287 49.8025 56.5572Z" fill="#A56D44"/>
<path d="M36.716 63.35C36.716 57.8715 42.7231 55.3004 45.7267 54.6997C40.2482 54.6997 37.4368 48.9329 36.716 46.0494C36.716 51.528 30.9491 54.099 28.0657 54.6997C34.1209 55.8531 36.3555 60.9472 36.716 63.35Z" fill="#A56D44"/>
<path d="M21.1621 68.7841C21.1621 65.4128 24.8588 63.8306 26.7072 63.4609C23.3358 63.4609 21.6057 59.9121 21.1621 58.1376C21.1621 61.509 17.6133 63.0912 15.8388 63.4609C19.5651 64.1707 20.9403 67.3055 21.1621 68.7841Z" fill="#A56D44"/>
<path d="M6.24623 70.1426C6.24623 67.6141 9.01876 66.4274 10.405 66.1502C7.87648 66.1502 6.57894 63.4885 6.24623 62.1577C6.24623 64.6863 3.5846 65.8729 2.25379 66.1502C5.0485 66.6825 6.07988 69.0336 6.24623 70.1426Z" fill="#A56D44"/>
</svg>
