<svg width="107" height="69" viewBox="0 0 107 69" fill="none" xmlns="http://www.w3.org/2000/svg">
<path d="M42.6034 52.6693C52.8027 52.9308 73.8289 53.14 76.3395 51.8847C79.4777 50.3156 83.4005 45.6083 76.3395 44.0391C75.3999 43.8304 74.2881 43.6331 73.0633 43.4482M73.0633 43.4482C66.9247 42.5214 57.9476 41.9034 53.5872 41.6854C49.1937 42.9407 51.2335 42.2084 52.8027 41.6854C51.7566 39.0702 48.2522 33.6829 42.6034 33.0552C35.5423 32.2707 18.282 36.1935 9.65185 36.1935C2.74772 36.1935 1.02184 38.8088 1.02191 40.1164V56.5922C1.09071 58.6297 1.17882 60.3581 8.08295 56.5922C16.7131 51.8848 30.835 55.8076 39.4651 60.515C48.0953 65.2223 56.7255 70.7142 64.5711 64.4378C72.4167 58.1613 73.2012 61.2995 77.9086 58.9458C82.6159 56.5922 95.1689 42.4701 100.661 40.901C106.153 39.3318 108.506 33.0554 102.23 33.8399C95.9535 34.6245 94.3843 36.978 90.4615 37.7626C86.2312 38.1878 76.8292 39.9203 73.0633 43.4482Z" stroke="#A56D44" stroke-width="1.56912"/>
<path d="M50.7052 21.2707C44.5175 20.2394 42.1111 10.528 41.6814 5.80123C41.8963 4.94181 42.5838 3.73863 43.6151 5.80123C44.9042 8.37947 53.2835 12.8914 55.8617 14.1805C57.9243 15.2118 58.0103 17.6182 57.7954 18.6924C58.0103 19.9816 56.893 22.302 50.7052 21.2707Z" fill="#A56D44"/>
<path d="M51.3498 9.66841C47.7403 8.12146 45.5488 4.29707 44.9042 2.57824C44.9042 1.71883 45.4198 0 47.4824 0C50.0607 0 49.4161 0 52.6389 0.644561C55.8617 1.28912 61.0182 8.37929 60.3737 11.6021C59.858 14.1803 58.8697 13.9655 58.44 13.5358C57.5806 12.8912 54.9593 11.2154 51.3498 9.66841Z" fill="#A56D44"/>
<path d="M64.8856 9.66841C60.2447 14.3092 59.5142 22.7745 59.7291 26.427C60.7604 28.4896 61.4479 27.2864 61.6628 26.427C62.0925 23.419 64.3699 17.1453 70.0421 16.114C77.1322 14.8249 80.355 10.313 81.6442 8.37929C82.6755 6.83234 82.5036 5.15649 82.2887 4.51192C82.0739 4.08222 80.8707 3.09389 77.7768 2.57824C73.9094 1.93368 70.6866 3.86736 64.8856 9.66841Z" fill="#A56D44"/>
<path d="M63.5965 27.0715L62.9519 31.5835C63.1668 31.7983 63.8543 32.228 64.8856 32.228C66.1747 32.228 73.9094 32.228 80.355 25.7824C86.8006 19.3368 85.5115 12.8912 85.5115 10.313C85.5115 7.73473 84.2224 7.09017 84.2224 8.37929C84.2224 9.66841 79.0659 14.8249 77.1322 16.114C75.1986 17.4031 70.0421 19.3368 67.4638 20.6259C65.4012 21.6572 64.0262 25.3527 63.5965 27.0715Z" fill="#A56D44"/>
</svg>
