<svg width="59" height="71" viewBox="0 0 59 71" fill="none" xmlns="http://www.w3.org/2000/svg">
<path d="M13.8999 59.1297C7.22805 58.0177 4.63344 47.5466 4.17012 42.45C4.40178 41.5234 5.1431 40.2261 6.25507 42.45C7.64504 45.23 16.6798 50.0949 19.4598 51.4848C21.6837 52.5968 21.7764 55.1914 21.5447 56.3497C21.7764 57.7397 20.5718 60.2416 13.8999 59.1297Z" fill="#A56D44"/>
<path d="M14.5949 46.6197C10.703 44.9518 8.34003 40.8282 7.64504 38.9749C7.64504 38.0483 8.20103 36.195 10.425 36.195C13.2049 36.195 12.5099 36.195 15.9849 36.89C19.4598 37.5849 25.0197 45.2298 24.3247 48.7047C23.7687 51.4846 22.703 51.253 22.2397 50.7897C21.3131 50.0947 18.4868 48.2877 14.5949 46.6197Z" fill="#A56D44"/>
<path d="M29.1896 46.6197C24.1857 51.6236 23.398 60.7511 23.6297 64.6893C24.7417 66.9133 25.483 65.616 25.7146 64.6893C26.178 61.4461 28.6336 54.6816 34.7494 53.5696C42.3943 52.1796 45.8692 47.3147 47.2592 45.2298C48.3711 43.5618 48.1858 41.7549 47.9541 41.0599C47.7225 40.5965 46.4252 39.5309 43.0893 38.9749C38.9193 38.2799 35.4444 40.3649 29.1896 46.6197Z" fill="#A56D44"/>
<path d="M27.7996 65.3843L27.1046 70.2492C27.3363 70.4809 28.0776 70.9442 29.1896 70.9442C30.5795 70.9442 38.9193 70.9442 45.8692 63.9944C52.819 57.0445 51.4291 50.0947 51.4291 47.3147C51.4291 44.5348 50.0391 43.8398 50.0391 45.2298C50.0391 46.6197 44.4792 52.1796 42.3943 53.5696C40.3093 54.9596 34.7494 57.0445 31.9695 58.4345C29.7456 59.5465 28.2629 63.531 27.7996 65.3843Z" fill="#A56D44"/>
<path d="M4.86511 19.5154C1.52918 21.1833 0.231875 33.1834 0.000213623 38.9749C2.78015 32.0251 9.03501 31.3301 15.9849 32.7201C22.9347 34.11 25.0197 40.3649 26.4096 41.0599C27.5216 41.6159 28.2629 41.2915 28.4946 41.0599C30.3479 38.9749 35.7224 34.805 42.3943 34.805C50.7341 34.805 52.1241 38.2799 53.514 40.3649C54.904 42.4498 55.599 48.0097 57.6839 43.8398C59.7689 39.6699 59.0739 27.1602 57.6839 23.6853C56.572 20.9053 53.9773 17.8937 52.819 16.7354C53.514 20.2103 50.7341 25.7702 49.3441 25.7702C47.9541 25.7702 46.5642 23.6853 45.8692 20.2103C45.1742 16.7354 43.7842 13.2605 41.6993 10.4806C40.0313 8.2566 35.9077 7.70062 34.0545 7.70062L36.8344 11.1755C39.6143 15.6234 37.0661 18.5887 35.4444 19.5154C32.8961 20.442 27.3826 20.7663 25.7146 14.6505C24.0467 8.5346 27.7996 2.3724 29.8845 0.0557861C27.7996 0.750771 25.0197 1.44576 19.4598 5.61566C13.8999 9.78557 15.9849 17.4304 14.5949 20.9053C13.2049 24.3802 11.12 24.3802 7.64504 25.0752C4.86511 25.6312 4.63344 21.6003 4.86511 19.5154Z" fill="#A56D44"/>
</svg>
