<svg width="106" height="48" viewBox="0 0 106 48" fill="none" xmlns="http://www.w3.org/2000/svg">
<path d="M15.8505 0.150047C18.5683 0.150047 20.9625 0.581445 23.0333 1.44424C25.104 2.2639 26.7217 3.49339 27.8865 5.13271C29.0944 6.77202 29.6984 8.7996 29.6984 11.2154C29.6984 13.0705 29.2885 14.6882 28.4689 16.0687C27.6924 17.4492 26.6354 18.6786 25.2981 19.7571C23.9608 20.7925 22.494 21.72 20.8978 22.5397C22.796 23.4456 24.5216 24.481 26.0746 25.6457C27.6277 26.7674 28.8571 28.0831 29.7631 29.593C30.7122 31.1029 31.1867 32.9148 31.1867 35.0287C31.1867 37.6171 30.5612 39.8603 29.3101 41.7585C28.0591 43.6135 26.2903 45.0587 24.0039 46.0941C21.7606 47.1294 19.1075 47.6471 16.0446 47.6471C12.7228 47.6471 9.89715 47.151 7.5676 46.1588C5.28118 45.1666 3.53401 43.7645 2.3261 41.9526C1.16132 40.0976 0.57893 37.8543 0.57893 35.2228C0.57893 33.1089 1.01033 31.2755 1.87313 29.7225C2.77907 28.1694 3.96541 26.8321 5.43217 25.7104C6.89893 24.5888 8.47354 23.6397 10.156 22.8632C8.64609 22.0004 7.26562 21.0298 6.01456 19.9513C4.80664 18.8296 3.83599 17.557 3.10262 16.1334C2.41238 14.7098 2.06726 13.0489 2.06726 11.1507C2.06726 8.77803 2.67122 6.79359 3.87913 5.19742C5.08705 3.5581 6.72637 2.30704 8.79709 1.44424C10.8678 0.581445 13.2189 0.150047 15.8505 0.150047ZM6.14398 35.2875C6.14398 37.5308 6.94207 39.4074 8.53825 40.9173C10.1344 42.384 12.5934 43.1174 15.9152 43.1174C18.029 43.1174 19.7978 42.7723 21.2214 42.082C22.645 41.3918 23.7235 40.4427 24.4569 39.2348C25.2334 38.0269 25.6217 36.6464 25.6217 35.0934C25.6217 33.5835 25.2118 32.2677 24.3922 31.1461C23.6156 29.9813 22.494 28.9459 21.0273 28.04C19.6036 27.1341 17.8996 26.3144 15.9152 25.581L14.8798 25.1928C12.9817 26.0124 11.3855 26.8968 10.0913 27.8459C8.79708 28.795 7.80487 29.8735 7.11463 31.0814C6.46753 32.2893 6.14398 33.6913 6.14398 35.2875ZM15.7858 4.74445C13.4131 4.74445 11.4502 5.32684 9.89715 6.49161C8.38726 7.61325 7.63231 9.25257 7.63231 11.4096C7.63231 13.0057 7.999 14.3431 8.73238 15.4216C9.50889 16.5001 10.5443 17.4276 11.8384 18.2041C13.1326 18.9375 14.5563 19.6493 16.1093 20.3395C17.6192 19.6924 18.9565 18.9806 20.1213 18.2041C21.3292 17.4276 22.2783 16.5001 22.9685 15.4216C23.7019 14.2999 24.0686 12.9626 24.0686 11.4096C24.0686 9.25257 23.3137 7.61325 21.8038 6.49161C20.2939 5.32684 18.2879 4.74445 15.7858 4.74445ZM68.2827 23.8339C68.2827 27.587 68.0022 30.9304 67.4414 33.8639C66.8806 36.7974 65.9747 39.2995 64.7236 41.3702C63.5157 43.3978 61.9195 44.9509 59.9351 46.0294C57.9938 47.1078 55.6427 47.6471 52.8817 47.6471C49.4305 47.6471 46.5617 46.698 44.2753 44.7999C42.032 42.9017 40.3496 40.1839 39.2279 36.6464C38.1494 33.0658 37.6102 28.795 37.6102 23.8339C37.6102 18.8296 38.1063 14.5588 39.0985 11.0213C40.1339 7.48383 41.7732 4.78759 44.0164 2.93257C46.2597 1.03442 49.2148 0.0853376 52.8817 0.0853376C56.3329 0.0853376 59.2017 1.03442 61.4881 2.93257C63.7745 4.78759 65.4786 7.48383 66.6002 11.0213C67.7218 14.5588 68.2827 18.8296 68.2827 23.8339ZM43.3046 23.8339C43.3046 28.0616 43.6066 31.5775 44.2106 34.3816C44.8577 37.1857 45.8715 39.2995 47.2519 40.7231C48.6756 42.1036 50.5521 42.7939 52.8817 42.7939C55.2113 42.7939 57.0663 42.1036 58.4468 40.7231C59.8704 39.3427 60.9057 37.2504 61.5528 34.4463C62.1999 31.599 62.5235 28.0616 62.5235 23.8339C62.5235 19.6062 62.1999 16.1118 61.5528 13.3509C60.9057 10.5468 59.8704 8.45448 58.4468 7.074C57.0663 5.65039 55.2113 4.93858 52.8817 4.93858C50.5521 4.93858 48.6756 5.65039 47.2519 7.074C45.8715 8.45448 44.8577 10.5468 44.2106 13.3509C43.6066 16.1118 43.3046 19.6062 43.3046 23.8339ZM92.2425 21.8926H105.12V26.487H92.2425V39.8172H87.5834V26.487H74.7061V21.8926H87.5834V8.49762H92.2425V21.8926Z" fill="#A56D44"/>
</svg>
